# xmcd
#
# Track frame offsets:
#   150
#   32492
#   47984
#   57546
#   67075
#   78509
#   92365
#   104475
#   114863
#   125925
#   175633
#   191448
#   201608
#   213742
#
# Disc length: 3210 seconds
#
# Revision: 0
# Processed by: cddbd v1.5.2PL0 Copyright (c) Steve Scherf et al.
# Submitted via: uFREEDB ActiveX Control 1.5
#
DISCID=d10c880e
DTITLE=Creedence Clearwater Revival - Cosmo's Factory
DYEAR=2008
DGENRE=Rock
TTITLE0=Ramble Tamble
TTITLE1=Before You Accuse Me
TTITLE2=Travelin' Band
TTITLE3=Ooby Dooby
TTITLE4=Lookin' Out My Back Door
TTITLE5=Run Through The Jungle
TTITLE6=Up Around The Bend
TTITLE7=My Baby Left Me
TTITLE8=Who'll Stop The Rain
TTITLE9=I Heard It Through The Grapevine
TTITLE10=Long As I Can See The Light
TTITLE11=Travelin' Band (Remake Take)
TTITLE12=Up Around The Band (Live In Amsterdam, Holland 9-1
TTITLE13=Born On The Bayou (With Booker T. and The MGs At Fan
EXTD=
EXTT0=
EXTT1=
EXTT2=
EXTT3=
EXTT4=
EXTT5=
EXTT6=
EXTT7=
EXTT8=
EXTT9=
EXTT10=
EXTT11=
EXTT12=
EXTT13=
PLAYORDER=
